<svg width="36" height="36" viewBox="0 0 36 36" fill="none" xmlns="http://www.w3.org/2000/svg">
<path d="M27.4177 16.0894C27.3036 9.63964 22.0395 4.44629 15.5625 4.44629C9.01391 4.44629 3.70532 9.75488 3.70532 16.3034C3.70532 19.3938 4.88756 22.208 6.82443 24.3184L5.93627 29.6618L11.2087 27.3972C13.5317 28.1696 15.724 28.3627 17.7857 27.9765" stroke="#FFEAD3" stroke-width="3" stroke-linecap="round" stroke-linejoin="round"/>
<path d="M11.2087 15.1674C12.1295 15.1674 12.8761 14.4154 12.8761 13.4876C12.8761 12.56 12.1295 11.8079 11.2087 11.8079C10.2878 11.8079 9.54126 12.56 9.54126 13.4876C9.54126 14.4154 10.2878 15.1674 11.2087 15.1674Z" fill="#FFEAD3"/>
<path d="M17.8783 15.1674C18.7992 15.1674 19.5458 14.4154 19.5458 13.4876C19.5458 12.56 18.7992 11.8079 17.8783 11.8079C16.9575 11.8079 16.2109 12.56 16.2109 13.4876C16.2109 14.4154 16.9575 15.1674 17.8783 15.1674Z" fill="#FFEAD3"/>
<path d="M28.7253 29.5905C27.4297 30.5545 25.8239 31.125 24.0848 31.125C19.7874 31.125 16.3036 27.6412 16.3036 23.3437C16.3036 19.0463 19.7874 15.5625 24.0848 15.5625C28.3823 15.5625 31.8661 19.0463 31.8661 23.3437C31.8661 24.5292 31.601 25.6529 31.1268 26.6584" stroke="#FFEAD3" stroke-width="3" stroke-linecap="round" stroke-linejoin="round"/>
<path d="M31.1267 26.6584L31.866 31.125L28.7252 29.5905" stroke="#FFEAD3" stroke-width="3" stroke-linecap="round" stroke-linejoin="round"/>
<path d="M26.447 22.8248C25.7563 22.8248 25.1964 22.2608 25.1964 21.565C25.1964 20.8692 25.7563 20.3052 26.447 20.3052C27.1376 20.3052 27.6975 20.8692 27.6975 21.565C27.6975 22.2608 27.1376 22.8248 26.447 22.8248Z" fill="#FFEAD3"/>
<path d="M21.4448 22.8248C20.7541 22.8248 20.1942 22.2608 20.1942 21.565C20.1942 20.8692 20.7541 20.3052 21.4448 20.3052C22.1355 20.3052 22.6953 20.8692 22.6953 21.565C22.6953 22.2608 22.1355 22.8248 21.4448 22.8248Z" fill="#FFEAD3"/>
</svg>
