<svg width="36" height="36" viewBox="0 0 36 36" fill="none" xmlns="http://www.w3.org/2000/svg">
<path d="M28.9018 4.44629H6.66963C5.44178 4.44629 4.44641 5.44166 4.44641 6.6695V28.9016C4.44641 30.1295 5.44178 31.1249 6.66963 31.1249H28.9018C30.1297 31.1249 31.125 30.1295 31.125 28.9016V6.6695C31.125 5.44166 30.1297 4.44629 28.9018 4.44629Z" stroke="#FFEAD3" stroke-width="3"/>
<path d="M14.4065 10.3748C14.7359 10.3748 15.0392 10.5534 15.1991 10.8413L16.308 12.8387C16.4532 13.1003 16.46 13.4166 16.3262 13.6842L15.5625 15.5623C15.5625 15.5623 15.749 17.2309 17.0447 18.5265C18.3404 19.8222 20.0089 20.0087 20.0089 20.0087L21.8813 19.2398C22.1491 19.1059 22.4656 19.1128 22.7273 19.2583L24.7304 20.372C25.0181 20.532 25.1964 20.8352 25.1964 21.1643V23.4639C25.1964 24.635 24.1086 25.4809 22.999 25.1064C20.72 24.3375 17.1824 22.8734 14.9401 20.631C12.6979 18.3889 11.2337 14.8512 10.4647 12.5722C10.0903 11.4626 10.9362 10.3748 12.1073 10.3748H14.4065Z" stroke="#FFEAD3" stroke-width="3" stroke-linejoin="round"/>
</svg>
