<svg width="36" height="36" viewBox="0 0 36 36" fill="none" xmlns="http://www.w3.org/2000/svg">
<path d="M9.3092 12.1616C6.83093 14.57 1.60312 21.5992 5.45617 26.6279C9.3092 31.6566 20.218 29.7168 24.7214 26.1741C29.2248 22.6314 28.7803 20.4423 27.8038 19.4778C26.8275 18.5133 23.9778 19.4879 23.1802 18.1755C22.3826 16.8631 24.6004 13.5846 22.7103 12.5472C20.8203 11.5098 17.5565 15.252 16.0824 14.2797C14.6082 13.3072 17.7047 10.1326 16.0824 9.2177C14.46 8.30293 11.7875 9.7532 9.3092 12.1616Z" stroke="#FFEAD3" stroke-width="3" stroke-linejoin="round"/>
<path d="M32.1468 12.2392C31.9725 9.91887 30.9761 7.82786 29.4482 6.25647C27.9567 4.7227 25.9588 3.68401 23.7245 3.4104" stroke="#FFEAD3" stroke-width="3" stroke-linecap="round"/>
<path d="M27.6359 12.5473C27.5402 11.3321 26.9932 10.2371 26.1544 9.4141C25.3357 8.61085 24.2388 8.06691 23.0122 7.92358" stroke="#FFEAD3" stroke-width="3" stroke-linecap="round"/>
<path d="M18.5268 22.2319C18.5268 23.869 16.536 25.1962 14.0803 25.1962C11.6247 25.1962 9.63391 23.869 9.63391 22.2319C9.63391 20.5948 11.6247 19.2676 14.0803 19.2676C16.536 19.2676 18.5268 20.5948 18.5268 22.2319Z" fill="#FFEAD3"/>
</svg>
